Coordinates
nRows=258
nColumns=2
inDegrees=yes
endheader
time	ankle_angle_r	
2.49496	 -0.366230	
2.52823	 -0.366193	
2.56149	 -0.358919	
2.59476	 -0.348466	
2.62802	 -0.343477	
2.66129	 -0.339932	
2.69456	 -0.329326	
2.72782	 -0.316024	
2.76109	 -0.309324	
2.79435	 -0.313013	
2.82762	 -0.323559	
2.86089	 -0.331570	
2.89415	 -0.333509	
2.92742	 -0.333665	
2.96069	 -0.333812	
2.99395	 -0.335171	
3.02722	 -0.339827	
3.06048	 -0.342827	
3.09375	 -0.336863	
3.12702	 -0.322516	
3.16028	 -0.306657	
3.19355	 -0.299454	
3.22681	 -0.308616	
3.26008	 -0.327445	
3.29335	 -0.341080	
3.32661	 -0.343766	
3.35988	 -0.337268	
3.39315	 -0.326701	
3.42641	 -0.321291	
3.45968	 -0.323282	
3.49294	 -0.326100	
3.52621	 -0.326099	
3.55948	 -0.323046	
3.59274	 -0.319328	
3.62601	 -0.320361	
3.65927	 -0.325014	
3.69254	 -0.328377	
3.72581	 -0.333161	
3.75907	 -0.340668	
3.79234	 -0.345226	
3.8256	 -0.346169	
3.85887	 -0.345806	
3.89214	 -0.341837	
3.9254	 -0.335687	
3.95867	 -0.334469	
3.99194	 -0.340270	
4.0252	 -0.347671	
4.05847	 -0.349459	
4.09173	 -0.344804	
4.125	 -0.342465	
4.15827	 -0.348500	
4.19153	 -0.358568	
4.2248	 -0.365948	
4.25806	 -0.366702	
4.29133	 -0.361361	
4.3246	 -0.354320	
4.35786	 -0.349195	
4.39113	 -0.348006	
4.4244	 -0.350544	
4.45766	 -0.354613	
4.49093	 -0.359735	
4.52419	 -0.365645	
4.55746	 -0.371302	
4.59073	 -0.379258	
4.62399	 -0.391851	
4.65726	 -0.403756	
4.69052	 -0.408652	
4.72379	 -0.408490	
4.75706	 -0.409247	
4.79032	 -0.413397	
4.82359	 -0.418948	
4.85685	 -0.423981	
4.89012	 -0.429106	
4.92339	 -0.432172	
4.95665	 -0.429485	
4.98992	 -0.424987	
5.02319	 -0.424586	
5.05645	 -0.425776	
5.08972	 -0.424464	
5.12298	 -0.421866	
5.15625	 -0.420899	
5.18952	 -0.423806	
5.22278	 -0.429483	
5.25605	 -0.432485	
5.28931	 -0.431004	
5.32258	 -0.429219	
5.35585	 -0.429376	
5.38911	 -0.430410	
5.42238	 -0.430911	
5.45565	 -0.429782	
5.48891	 -0.427607	
5.52218	 -0.424912	
5.55544	 -0.421645	
5.58871	 -0.420468	
5.62198	 -0.422870	
5.65524	 -0.425241	
5.68851	 -0.425581	
5.72177	 -0.426019	
5.75504	 -0.427457	
5.78831	 -0.429730	
5.82157	 -0.431521	
5.85484	 -0.429135	
5.8881	 -0.423956	
5.92137	 -0.422642	
5.95464	 -0.425400	
5.9879	 -0.426550	
6.02117	 -0.423812	
6.05444	 -0.418544	
6.0877	 -0.413477	
6.12097	 -0.409895	
6.15423	 -0.404075	
6.1875	 -0.392197	
6.22077	 -0.375820	
6.25403	 -0.362046	
6.2873	 -0.358582	
6.32056	 -0.362202	
6.35383	 -0.361694	
6.3871	 -0.354200	
6.42036	 -0.344956	
6.45363	 -0.339564	
6.4869	 -0.343389	
6.52016	 -0.354603	
6.55343	 -0.361823	
6.58669	 -0.358432	
6.61996	 -0.348119	
6.65323	 -0.336359	
6.68649	 -0.326559	
6.71976	 -0.320532	
6.75302	 -0.319625	
6.78629	 -0.324129	
6.81956	 -0.329389	
6.85282	 -0.329396	
6.88609	 -0.325509	
6.91935	 -0.323348	
6.95262	 -0.323557	
6.98589	 -0.321761	
7.01915	 -0.316386	
7.05242	 -0.312795	
7.08569	 -0.315381	
7.11895	 -0.322101	
7.15222	 -0.332510	
7.18548	 -0.346496	
7.21875	 -0.355449	
7.25202	 -0.352759	
7.28528	 -0.343506	
7.31855	 -0.334890	
7.35181	 -0.330353	
7.38508	 -0.330827	
7.41835	 -0.334276	
7.45161	 -0.337744	
7.48488	 -0.338617	
7.51815	 -0.333627	
7.55141	 -0.324050	
7.58468	 -0.319554	
7.61794	 -0.326700	
7.65121	 -0.339797	
7.68448	 -0.349565	
7.71774	 -0.352152	
7.75101	 -0.351883	
7.78427	 -0.357833	
7.81754	 -0.370115	
7.85081	 -0.379306	
7.88407	 -0.382002	
7.91734	 -0.381084	
7.9506	 -0.378949	
7.98387	 -0.379049	
8.01714	 -0.382504	
8.0504	 -0.386434	
8.08367	 -0.389224	
8.11694	 -0.390715	
8.1502	 -0.392108	
8.18347	 -0.395568	
8.21673	 -0.398023	
8.25	 -0.395189	
8.28327	 -0.391154	
8.31653	 -0.391215	
8.3498	 -0.393821	
8.38306	 -0.395493	
8.41633	 -0.394030	
8.4496	 -0.389708	
8.48286	 -0.386448	
8.51613	 -0.387392	
8.5494	 -0.392355	
8.58266	 -0.399180	
8.61593	 -0.403552	
8.64919	 -0.402548	
8.68246	 -0.398581	
8.71573	 -0.395631	
8.74899	 -0.396010	
8.78226	 -0.399259	
8.81552	 -0.401169	
8.84879	 -0.398579	
8.88206	 -0.392451	
8.91532	 -0.384029	
8.94859	 -0.373814	
8.98185	 -0.364721	
9.01512	 -0.360582	
9.04839	 -0.360686	
9.08165	 -0.358973	
9.11492	 -0.352252	
9.14819	 -0.346812	
9.18145	 -0.348000	
9.21472	 -0.351765	
9.24798	 -0.353924	
9.28125	 -0.352905	
9.31452	 -0.347250	
9.34778	 -0.341858	
9.38105	 -0.344260	
9.41431	 -0.353552	
9.44758	 -0.363410	
9.48085	 -0.369622	
9.51411	 -0.371851	
9.54738	 -0.373111	
9.58065	 -0.374928	
9.61391	 -0.376046	
9.64718	 -0.377249	
9.68044	 -0.379581	
9.71371	 -0.382215	
9.74698	 -0.385487	
9.78024	 -0.388777	
9.81351	 -0.388779	
9.84677	 -0.386073	
9.88004	 -0.387117	
9.91331	 -0.395724	
9.94657	 -0.408732	
9.97984	 -0.419040	
10.0131	 -0.421123	
10.0464	 -0.417434	
10.0796	 -0.413832	
10.1129	 -0.411705	
10.1462	 -0.411126	
10.1794	 -0.411656	
10.2127	 -0.411817	
10.246	 -0.414843	
10.2792	 -0.423711	
10.3125	 -0.432398	
10.3458	 -0.434883	
10.379	 -0.432724	
10.4123	 -0.428934	
10.4456	 -0.426282	
10.4788	 -0.426808	
10.5121	 -0.428126	
10.5454	 -0.427425	
10.5786	 -0.425052	
10.6119	 -0.421637	
10.6452	 -0.418224	
10.6784	 -0.414904	
10.7117	 -0.409461	
10.745	 -0.404214	
10.7782	 -0.404355	
10.8115	 -0.407481	
10.8448	 -0.405605	
10.878	 -0.395015	
10.9113	 -0.380764	
10.9446	 -0.372159	
10.9778	 -0.372477	
11.0111	 -0.377048	
11.0444	 -0.381501	
